<svg version="1.1" xmlns="http://www.w3.org/2000/svg" viewBox="-2232.494728115891 -563.3183354597236 4496.756239861381 1148.8938622716569" fill="none" stroke="black" stroke-width="0.6%" vector-effect="non-scaling-stroke">
    <path d="M 1156.90828 -21.48136 A 295.275 109.40541 267.85719 0 1 1157.2824 -20.53517" />
    <path d="M 1174.66543 378.07425 A 295.275 109.40541 267.85719 0 1 1096.56691 480.4822 A 295.275 109.40541 267.85719 0 1 1011.03396 384.19678" />
    <path d="M 998.58089 -14.59711 A 295.275 109.40541 267.85719 0 1 998.88325 -15.56861" />
    <path d="M -340.23305 -79.19123 L -340.23305 -55.41943" />
    <path d="M 1923.02846 -163.87474 L -340.23305 -79.19123" />
    <path d="M 1862.62942 -176.79683 L 1862.62942 -177.93297 L 1810.64084 -190.03361 L -452.62067 -105.35011 L -452.62067 -81.5783" />
    <path d="M 2263.26151 -60.9117 L 2263.26151 337.34271" />
    <path d="M 2263.26151 -60.9117 L 2255.98609 -62.6051 L 2255.98609 -86.3769 L 2203.99751 -98.47755 L -59.264 -13.79404 L -59.264 9.97776" />
    <path d="M 2199.79228 -98.3202 L 2199.79228 -99.45634 L 2147.8037 -111.55698 L -115.45781 -26.87348 L -115.45781 -3.10168" />
    <path d="M 2143.59847 -111.39964 L 2143.59847 -112.53578 L 2091.60989 -124.63642 L -171.65162 -39.95292 L -171.65162 -16.18111" />
    <path d="M 2087.40466 -124.47908 L 2087.40466 -125.61521 L 2035.41608 -137.71586 L -227.84543 -53.03236 L -227.84543 -29.26055" />
    <path d="M 2031.21085 -137.55851 L 2031.21085 -138.69465 L 1979.22227 -150.7953 L -284.03924 -66.11179 L -284.03924 -42.33999" />
    <path d="M 1975.01704 -150.63795 L 1975.01704 -151.77409 L 1923.02846 -163.87474" />
    <path d="M 1918.82323 -163.71739 L 1918.82323 -164.85353 L 1866.83465 -176.95417 L -396.42686 -92.27067 L -396.42686 -68.49886" />
    <path d="M -205.31173 374.23871 A 295.275 109.40541 267.85719 0 1 -295.69534 532.5759 A 295.275 109.40541 267.85719 0 1 -408.15986 327.02462" />
    <path d="M -344.43828 -56.39822 L -340.23305 -55.41943" />
    <path d="M -344.43828 -56.39822 L -340.23305 -56.55556" />
    <path d="M -400.63209 -69.47766 L -400.63209 -93.24946 L -452.62067 -105.35011" />
    <path d="M -453.7185 -81.83383 L -452.62067 -81.5783" />
    <path d="M -453.7185 -81.83383 L -453.7185 316.42058 L 0 422.02621 L 2263.26151 337.34271" />
    <path d="M 0 23.77181 L 0 422.02621" />
    <path d="M -7.27542 22.07841 L 0 23.77181 L 2263.26151 -60.9117" />
    <path d="M -7.27542 22.07841 L -7.27542 -1.6934 L -59.264 -13.79404" />
    <path d="M -63.46923 8.99897 L -59.264 9.97776" />
    <path d="M -63.46923 8.99897 L -63.46923 -14.77284 L -115.45781 -26.87348" />
    <path d="M -119.66304 -4.08047 L -115.45781 -3.10168" />
    <path d="M -119.66304 -4.08047 L -119.66304 -27.85227 L -171.65162 -39.95292" />
    <path d="M -175.85685 -17.15991 L -171.65162 -16.18111" />
    <path d="M -175.85685 -17.15991 L -175.85685 -40.93171 L -227.84543 -53.03236" />
    <path d="M -232.05066 -30.23934 L -227.84543 -29.26055" />
    <path d="M -232.05066 -30.23934 L -232.05066 -54.01115 L -284.03924 -66.11179" />
    <path d="M -288.24447 -43.31878 L -284.03924 -42.33999" />
    <path d="M -288.24447 -43.31878 L -288.24447 -67.09059 L -340.23305 -79.19123" />
    <path d="M -344.43828 -56.39822 L -344.43828 -80.17002 L -396.42686 -92.27067" />
    <path d="M -400.63209 -69.47766 L -396.42686 -68.49886" />
    <path d="M 1975.01704 -151.77409 L -288.24447 -67.09059" />
    <path d="M 2.00632 21.73112 L 5.5603 22.55833 L 2250.25832 -61.4306 L 2246.70434 -62.2578 L 2255.98609 -62.6051" />
    <path d="M -288.24447 -43.31878 L -284.03924 -43.47613" />
    <path d="M -400.63209 -69.47766 L -396.42686 -69.635" />
    <path d="M 1862.62942 -177.93297 L -400.63209 -93.24946" />
    <path d="M -452.62067 -81.8749 L -453.7185 -81.83383" />
    <path d="M -7.27542 22.07841 L 2.00632 21.73112 L 2246.70434 -62.2578" />
    <path d="M 2255.98609 -86.3769 L -7.27542 -1.6934" />
    <path d="M -63.46923 8.99897 L -59.264 8.84163" />
    <path d="M 2199.79228 -99.45634 L -63.46923 -14.77284" />
    <path d="M -119.66304 -4.08047 L -115.45781 -4.23781" />
    <path d="M 2143.59847 -112.53578 L -119.66304 -27.85227" />
    <path d="M -175.85685 -17.15991 L -171.65162 -17.31725" />
    <path d="M 2087.40466 -125.61521 L -175.85685 -40.93171" />
    <path d="M -232.05066 -30.23934 L -227.84543 -30.39669" />
    <path d="M 2031.21085 -138.69465 L -232.05066 -54.01115" />
    <path d="M 1918.82323 -164.85353 L -344.43828 -80.17002" />
    <path d="M 2127.31926 502.24088 A 295.275 109.40541 87.85719 0 0 2218.4714 339.0186" />
    <path d="M 2155.83569 -57.89762 A 295.275 109.40541 87.85719 0 0 2155.09215 -58.82999" />
    <path d="M 1308.81311 531.37138 A 295.275 109.40541 87.85719 0 0 1319.85357 532.45348 A 295.275 109.40541 87.85719 0 0 1411.0057 369.2312" />
    <path d="M 1348.36999 -27.68502 A 295.275 109.40541 87.85719 0 0 1347.62645 -28.61739" />
    <path d="M 1250.23034 -24.97316 A 295.275 109.40541 87.85719 0 0 1249.55855 -23.98783" />
    <path d="M 1216.75895 376.49925 A 295.275 109.40541 87.85719 0 0 1308.81311 531.37138" />
    <path d="M 735.05702 554.33457 A 295.275 109.40541 87.85719 0 0 826.20915 391.11229" />
    <path d="M 763.57344 -5.80393 A 295.275 109.40541 87.85719 0 0 762.8299 -6.7363" />
    <path d="M -83.44913 583.46507 A 295.275 109.40541 87.85719 0 0 -72.40868 584.54717 A 295.275 109.40541 87.85719 0 0 18.74345 421.3249" />
    <path d="M -184.8732 378.99589 A 295.275 109.40541 87.85719 0 0 -83.44913 583.46507" />
    <path d="M 1439.27365 -244.39098 A 295.275 109.40541 87.85719 0 0 1428.2332 -245.47308 L 620.7675 -215.26048 A 295.275 109.40541 267.85719 0 1 631.80796 -214.17838 A 295.275 109.40541 267.85719 0 1 693.92059 -148.24976" />
    <path d="M 1496.68683 -187.70848 A 295.275 109.40541 87.85719 0 0 1439.27365 -244.39098" />
    <path d="M 552.82657 -142.9705 A 295.275 109.40541 267.85719 0 1 620.7675 -215.26048" />
    <path d="M 1662.56031 -192.41971 A 295.275 109.40541 87.85719 0 0 1651.51986 -193.50181 L 844.05416 -163.2892 A 295.275 109.40541 267.85719 0 1 855.09462 -162.2071 A 295.275 109.40541 267.85719 0 1 871.79453 -154.90519" />
    <path d="M 1679.26022 -185.1178 A 295.275 109.40541 87.85719 0 0 1662.56031 -192.41971" />
    <path d="M 917.86895 387.68269 A 295.275 109.40541 267.85719 0 1 866.13507 426.84785 A 295.275 109.40541 267.85719 0 1 823.69507 406.19938" />
    <path d="M 817.01789 -152.85564 A 295.275 109.40541 267.85719 0 1 844.05416 -163.2892" />
    <path d="M 47.0114 -192.29729 A 295.275 109.40541 87.85719 0 0 35.97095 -193.37939 L -771.49475 -163.16679 A 295.275 109.40541 267.85719 0 1 -760.45429 -162.08469 A 295.275 109.40541 267.85719 0 1 -749.41384 426.97026 A 295.275 109.40541 267.85719 0 1 -771.49475 -163.16679" />
    <path d="M 109.12403 -126.36867 A 295.275 109.40541 87.85719 0 0 47.0114 -192.29729" />
    <path d="M 985.55516 -349.99661 A 295.275 109.40541 87.85719 0 0 974.5147 -351.07871 L 167.04901 -320.86611 A 295.275 109.40541 267.85719 0 1 178.08946 -319.78401 A 295.275 109.40541 267.85719 0 1 276.68596 -132.63827" />
    <path d="M 1042.96833 -293.31412 A 295.275 109.40541 87.85719 0 0 985.55516 -349.99661" />
    <path d="M 78.41096 -172.73092 A 295.275 109.40541 267.85719 0 1 167.04901 -320.86611" />
    <path d="M 1208.84182 -298.02534 A 295.275 109.40541 87.85719 0 0 1197.80136 -299.10744 L 390.33567 -268.89483 A 295.275 109.40541 267.85719 0 1 401.37612 -267.81273 A 295.275 109.40541 267.85719 0 1 486.34001 -140.4828" />
    <path d="M 1267.25554 -239.44985 A 295.275 109.40541 87.85719 0 0 1208.84182 -298.02534" />
    <path d="M 304.19581 -133.66759 A 295.275 109.40541 267.85719 0 1 390.33567 -268.89483" />
    <path d="M -406.70709 -297.90292 A 295.275 109.40541 87.85719 0 0 -417.74755 -298.98502 L -1225.21324 -268.77242 A 295.275 109.40541 267.85719 0 1 -1214.17279 -267.69032 A 295.275 109.40541 267.85719 0 1 -1203.13233 321.36463 A 295.275 109.40541 267.85719 0 1 -1225.21324 -268.77242" />
    <path d="M -349.29392 -241.22042 A 295.275 109.40541 87.85719 0 0 -406.70709 -297.90292" />
    <path d="M -183.42043 -245.93165 A 295.275 109.40541 87.85719 0 0 -194.46089 -247.01375 L -1001.92658 -216.80114 A 295.275 109.40541 267.85719 0 1 -990.88613 -215.71904 A 295.275 109.40541 267.85719 0 1 -979.84567 373.33591 A 295.275 109.40541 267.85719 0 1 -1001.92658 -216.80114" />
    <path d="M -125.00671 -187.35616 A 295.275 109.40541 87.85719 0 0 -183.42043 -245.93165" />
    <path d="M 531.83666 -455.60225 A 295.275 109.40541 87.85719 0 0 520.79621 -456.68435 L -286.66949 -426.47174 A 295.275 109.40541 267.85719 0 1 -275.62903 -425.38964 A 295.275 109.40541 267.85719 0 1 -178.14107 -244.36335" />
    <path d="M 589.24984 -398.91975 A 295.275 109.40541 87.85719 0 0 531.83666 -455.60225" />
    <path d="M -375.30754 -278.33655 A 295.275 109.40541 267.85719 0 1 -286.66949 -426.47174" />
    <path d="M 755.12332 -403.63097 A 295.275 109.40541 87.85719 0 0 744.08287 -404.71307 L -63.38283 -374.50047 A 295.275 109.40541 267.85719 0 1 -52.34237 -373.41837 A 295.275 109.40541 267.85719 0 1 45.08827 -192.69988" />
    <path d="M 813.53704 -345.05548 A 295.275 109.40541 87.85719 0 0 755.12332 -403.63097" />
    <path d="M -152.02088 -226.36528 A 295.275 109.40541 267.85719 0 1 -63.38283 -374.50047" />
    <path d="M -860.42559 -403.50856 A 295.275 109.40541 87.85719 0 0 -871.46604 -404.59066 L -1678.93174 -374.37805 A 295.275 109.40541 267.85719 0 1 -1667.89128 -373.29595 A 295.275 109.40541 267.85719 0 1 -1656.85083 215.759 A 295.275 109.40541 267.85719 0 1 -1678.93174 -374.37805" />
    <path d="M -803.01241 -346.82606 A 295.275 109.40541 87.85719 0 0 -860.42559 -403.50856" />
    <path d="M -637.13893 -351.53728 A 295.275 109.40541 87.85719 0 0 -648.17938 -352.61938 L -1455.64508 -322.40678 A 295.275 109.40541 267.85719 0 1 -1444.60462 -321.32468 A 295.275 109.40541 267.85719 0 1 -1433.56417 267.73027 A 295.275 109.40541 267.85719 0 1 -1455.64508 -322.40678" />
    <path d="M -578.72521 -292.96179 A 295.275 109.40541 87.85719 0 0 -637.13893 -351.53728" />
    <path d="M 78.11816 -561.20788 A 295.275 109.40541 87.85719 0 0 67.07771 -562.28998 L -740.38799 -532.07738 A 295.275 109.40541 267.85719 0 1 -729.34753 -530.99528 A 295.275 109.40541 267.85719 0 1 -631.85957 -349.96898" />
    <path d="M 135.53134 -504.52538 A 295.275 109.40541 87.85719 0 0 78.11816 -561.20788" />
    <path d="M -829.02604 -383.94218 A 295.275 109.40541 267.85719 0 1 -740.38799 -532.07738" />
    <path d="M 301.40483 -509.2366 A 295.275 109.40541 87.85719 0 0 290.36437 -510.3187 L -517.10132 -480.1061 A 295.275 109.40541 267.85719 0 1 -506.06087 -479.024 A 295.275 109.40541 267.85719 0 1 -408.63023 -298.30552" />
    <path d="M 359.81855 -450.66111 A 295.275 109.40541 87.85719 0 0 301.40483 -509.2366" />
    <path d="M -605.73937 -331.97091 A 295.275 109.40541 267.85719 0 1 -517.10132 -480.1061" />
    <path d="M -1314.14408 -509.11419 A 295.275 109.40541 87.85719 0 0 -1325.18454 -510.19629 L -2132.65023 -479.98368 A 295.275 109.40541 267.85719 0 1 -2121.60978 -478.90158 A 295.275 109.40541 267.85719 0 1 -2110.56932 110.15336 A 295.275 109.40541 267.85719 0 1 -2132.65023 -479.98368" />
    <path d="M -1256.73091 -452.43169 A 295.275 109.40541 87.85719 0 0 -1314.14408 -509.11419" />
    <path d="M -1090.85742 -457.14291 A 295.275 109.40541 87.85719 0 0 -1101.89788 -458.22501 L -1909.36357 -428.01241 A 295.275 109.40541 267.85719 0 1 -1898.32312 -426.93031 A 295.275 109.40541 267.85719 0 1 -1887.28266 162.12464 A 295.275 109.40541 267.85719 0 1 -1909.36357 -428.01241" />
    <path d="M -1032.4437 -398.56742 A 295.275 109.40541 87.85719 0 0 -1090.85742 -457.14291" />
    <path d="M 1251.39994 474.68888 L 1096.56691 480.4822" />
    <path d="M -140.86231 526.78257 L -295.69534 532.5759" />
    <path d="M 735.05702 554.33457 L -72.40868 584.54717" />
    <path d="M 2127.31926 502.24088 L 1319.85357 532.45348" />
    <path d="M 1027.11273 420.82461 L 866.13507 426.84785" />
    <path d="M -388.93354 413.48232 L -749.41384 426.97026" />
    <path d="M -1048.2993 315.57131 L -1203.13233 321.36463" />
    <path d="M -818.86801 367.31267 L -979.84567 373.33591" />
    <path d="M -1502.0178 209.96567 L -1656.85083 215.759" />
    <path d="M -1272.58651 261.70704 L -1433.56417 267.73027" />
    <path d="M -1955.73629 104.36004 L -2110.56932 110.15336" />
    <path d="M -1726.305 156.10141 L -1887.28266 162.12464" />
</svg>