<svg width="768" height="260" viewBox="0 0 768 260" fill="none" xmlns="http://www.w3.org/2000/svg">
<path d="M573 39C593.5 39 596.139 64.169 587 74.5C575.5 87.5 551 91.5 551 91.5V105.5C552.833 102.167 559.3 95.5 570.5 95.5C584.5 95.5 590 105 590 115C590 125 585.5 139.5 593.5 139.5C601.5 139.5 608.5 128.5 608.5 120C608.5 113.2 611.167 95.1667 612.5 87L628 89.5C626.5 97.8333 623.5 116 623.5 122C623.5 129.5 623.5 139.5 632 139.5C640.5 139.5 645.902 133.5 648.5 129C651.098 124.5 654 116 654 111V88H668.5V96C670.833 93 678.2 87 689 87C702.5 87 710.722 95.5 713 104C715.278 112.5 714.34 124.5 713 129.5C717.667 130.833 728.2 130.1 733 116.5L747.5 121C745.333 130.333 733.7 148.2 704.5 145C699.333 150.167 684.8 158.7 668 151.5L668.5 188.5H651.5L653 145C649.5 148.333 640.4 155 632 155C623.6 155 615.167 149.333 612 146.5C609.5 149.333 602.3 155 593.5 155C582.5 155 573.5 147 573.5 137.5C573.5 128 574 121.5 574 118C574 114.5 571.5 110.5 566 110.5C560.5 110.5 551 117.5 551 131V153.5H535.5C536 141 537 110.8 537 90C537 64 552.5 39 573 39ZM687 102.5C674.5 102.5 668 118 668 124.5V147.5L674.5 138C696 143.761 699 124.5 699 120C699 115.5 699.5 102.5 687 102.5ZM575.791 59.7822C576.544 54.1314 567.654 51.7961 561.021 58.7422C555.715 64.2994 553.65 73.9726 554.225 75.7451C569.091 73.7448 575.038 65.4331 575.791 59.7822Z" fill="#A48FB1"/>
<path d="M621 53.5L614 70L630 76L636.5 59.5L621 53.5Z" fill="#A48FB1"/>
<path d="M132.998 66.5L129.498 86.5H147.498L146.498 100.5H126.998C126.165 104.667 124.498 115 124.498 123C124.498 133 128.998 138.5 136.498 139C143.998 139.5 153.498 133.5 156.498 125.5C159.498 117.5 158.998 112.5 163.998 103C168.998 93.5001 176.998 87 189.998 87C202.998 87.0001 210.998 96.5001 210.998 105.5C210.998 114.5 206.502 119.5 202.5 122.5C198.247 125.688 190.498 127.5 173.998 127.5C174.498 131.333 179.098 139 193.498 139C211.498 139 217.498 129.5 221.998 123C226.498 116.5 223.498 114 230.998 101.5C238.498 89.0001 249.998 87 257.998 87C265.998 87.0001 276.498 90.5001 283.498 100.5L270.998 109.5C269.831 107.167 265.598 102.5 257.998 102.5C248.498 102.5 239.998 112 239.998 123C239.998 134 245.998 139.5 252.498 139.5C258.998 139.5 263.498 134.5 265.998 128.5C267.998 123.7 268.165 117.167 267.998 114.5H283.998V131.5C283.998 136.5 286.498 139 291.998 139C297.498 139 306.498 127.5 306.498 120V88H320.998V98C323.665 94.3333 331.298 87 340.498 87C349.698 87.0001 355.998 94.3334 357.998 98C359.998 94.3333 366.898 87 378.498 87C392.998 87.0001 398.498 99 398.498 105.5V133C398.498 138 402.998 139.5 406.498 139.5C409.998 139.5 416.998 136.5 420.498 116L434.998 120.5C434.165 124.5 431.598 134.1 427.998 140.5C423.498 148.5 414.498 154.5 406.498 154.5C398.498 154.5 381.998 153.5 381.998 133C381.998 112.5 384.998 102 374.998 102C364.998 102 361.498 113.5 361.498 121.5V153.5H344.498C344.998 142.667 345.998 119.7 345.998 114.5C345.998 108 342.498 102 336.498 102C330.498 102 322.998 112 322.998 120V153.5H306.498V147.5C303.331 149.833 295.398 154.5 288.998 154.5C280.998 154.5 273.998 148.964 271.998 145.5C268.498 148.5 259.698 154.5 252.498 154.5C243.498 154.5 234.998 152 227.498 141C221.831 145.667 207.098 155 193.498 155C179.898 155 167.832 146.667 163.498 142.5C159.998 146.333 149.698 154 136.498 154C119.998 154 108.498 144.5 108.498 133C108.498 123.8 109.831 107.5 110.498 100H103L105.498 85.5H113.498C113.998 81.8333 116 72 119 63L132.998 66.5ZM195.5 107.002C197 101.502 188.501 98.002 181.001 104.002C175.001 108.802 174.167 114.667 174.5 116.5C189.5 116.5 194 112.502 195.5 107.002Z" fill="#A48FB1"/>
<path d="M57.8827 189.5L56.9227 193.52L53.4427 192.5C50.9627 191.9 48.8227 191.6 47.0227 191.6C42.3027 191.6 39.9427 193.7 39.9427 197.9C39.9427 199.74 40.6627 201.26 42.1027 202.46C43.5427 203.62 45.2827 204.56 47.3227 205.28C49.4027 205.96 51.4627 206.72 53.5027 207.56C55.5827 208.36 57.3427 209.62 58.7827 211.34C60.2227 213.02 60.9427 215.16 60.9427 217.76C60.9427 221.72 59.7227 224.82 57.2827 227.06C54.8427 229.26 51.3827 230.36 46.9027 230.36C44.6627 230.36 42.4027 230.04 40.1227 229.4C37.8827 228.72 36.0427 227.94 34.6027 227.06L36.1027 223.64C39.7427 225.32 43.1827 226.16 46.4227 226.16C49.7027 226.16 52.1827 225.5 53.8627 224.18C55.5827 222.86 56.4427 220.94 56.4427 218.42C56.4427 215.86 55.0627 213.86 52.3027 212.42C51.0627 211.78 49.6827 211.18 48.1627 210.62C46.6827 210.06 45.1827 209.46 43.6627 208.82C42.1827 208.14 40.8227 207.38 39.5827 206.54C38.3827 205.7 37.3827 204.56 36.5827 203.12C35.8227 201.68 35.4427 200 35.4427 198.08C35.4427 194.64 36.4627 192 38.5027 190.16C40.5827 188.32 43.3627 187.4 46.8427 187.4C50.3227 187.4 54.0027 188.1 57.8827 189.5ZM90.6296 215.96H71.4896C71.4896 219.8 72.3896 222.52 74.1896 224.12C76.0296 225.72 78.3296 226.52 81.0896 226.52C82.4896 226.52 83.4696 226.46 84.0296 226.34C84.5896 226.18 85.1096 226.04 85.5896 225.92C86.1096 225.76 86.4696 225.64 86.6696 225.56C87.6696 225.28 88.5296 225.02 89.2496 224.78L89.9696 228.26C85.9696 229.66 82.8496 230.36 80.6096 230.36C76.4896 230.36 73.1896 229.12 70.7096 226.64C68.2296 224.12 66.9896 220.36 66.9896 215.36C66.9896 210.32 68.1496 206.4 70.4696 203.6C72.8296 200.8 75.7896 199.4 79.3496 199.4C82.9496 199.4 85.7496 200.56 87.7496 202.88C89.7496 205.2 90.7496 208.34 90.7496 212.3C90.7496 213.38 90.7096 214.6 90.6296 215.96ZM71.7896 212.54H86.4296C86.4296 209.58 85.9096 207.3 84.8696 205.7C83.8296 204.1 82.0096 203.3 79.4096 203.3C76.8496 203.3 74.9696 204.16 73.7696 205.88C72.5696 207.6 71.9096 209.82 71.7896 212.54ZM112.125 212.06H114.585C114.585 208.42 114.125 206.06 113.205 204.98C112.285 203.86 110.245 203.3 107.085 203.3C103.925 203.3 101.245 203.72 99.0451 204.56L98.2051 201.08C101.565 199.96 105.045 199.4 108.645 199.4C115.685 199.4 119.205 202.92 119.205 209.96V230H116.565L115.005 226.46C113.165 227.98 111.565 229.02 110.205 229.58C108.885 230.1 107.345 230.36 105.585 230.36C102.785 230.36 100.605 229.54 99.0451 227.9C97.4851 226.22 96.7051 224.02 96.7051 221.3C96.7051 215.14 101.845 212.06 112.125 212.06ZM114.645 215.84H111.945C107.865 215.84 105.045 216.24 103.485 217.04C101.965 217.84 101.205 219.1 101.205 220.82C101.205 222.5 101.645 223.88 102.525 224.96C103.405 226.04 104.545 226.58 105.945 226.58C107.385 226.58 108.745 226.26 110.025 225.62C111.345 224.94 112.885 223.78 114.645 222.14V215.84ZM130.823 223.52V203.6H126.743V200H130.883V191.42H135.383V200H142.703V203.6H135.323V222.68C135.323 225.36 136.683 226.7 139.403 226.7C140.043 226.7 141.023 226.58 142.343 226.34L143.003 229.58C141.363 230.1 139.663 230.36 137.903 230.36C136.183 230.36 134.563 229.84 133.043 228.8C131.563 227.72 130.823 225.96 130.823 223.52ZM151.565 223.52V203.6H147.485V200H151.625V191.42H156.125V200H163.445V203.6H156.065V222.68C156.065 225.36 157.425 226.7 160.145 226.7C160.785 226.7 161.765 226.58 163.085 226.34L163.745 229.58C162.105 230.1 160.405 230.36 158.645 230.36C156.925 230.36 155.305 229.84 153.785 228.8C152.305 227.72 151.565 225.96 151.565 223.52ZM171.587 230V188H176.087V230H171.587ZM207.817 215.96H188.677C188.677 219.8 189.577 222.52 191.377 224.12C193.217 225.72 195.517 226.52 198.277 226.52C199.677 226.52 200.657 226.46 201.217 226.34C201.777 226.18 202.297 226.04 202.777 225.92C203.297 225.76 203.657 225.64 203.857 225.56C204.857 225.28 205.717 225.02 206.437 224.78L207.157 228.26C203.157 229.66 200.037 230.36 197.797 230.36C193.677 230.36 190.377 229.12 187.897 226.64C185.417 224.12 184.177 220.36 184.177 215.36C184.177 210.32 185.337 206.4 187.657 203.6C190.017 200.8 192.977 199.4 196.537 199.4C200.137 199.4 202.937 200.56 204.937 202.88C206.937 205.2 207.937 208.34 207.937 212.3C207.937 213.38 207.897 214.6 207.817 215.96ZM188.977 212.54H203.617C203.617 209.58 203.097 207.3 202.057 205.7C201.017 204.1 199.197 203.3 196.597 203.3C194.037 203.3 192.157 204.16 190.957 205.88C189.757 207.6 189.097 209.82 188.977 212.54ZM270.173 188.06L260.213 230H254.993L248.873 205.64L241.373 230H236.453L226.673 188.06H231.833L239.153 224.9L247.133 199.4H250.493L257.873 224.9L265.433 188.06H270.173ZM304.911 230H299.871L295.671 216.74H280.611L276.471 230H271.731L285.531 188H290.991L304.911 230ZM294.651 212.84L288.231 192.56L281.751 212.84H294.651Z" fill="#A48FB1"/>
<path d="M90.5046 90.0002H75.0046C81.5048 66.9995 59.5044 63.5008 55.0044 74.0008C50.5044 84.5008 58.0044 90.0002 66.5044 94.5009C75.0044 99.0015 93.0044 103.501 94.5044 122.501C96.0044 141.501 84.6615 151.174 71.0044 154C56.5044 157 41.5045 153 35.0048 142C29.8244 133.233 30.3335 121.334 31.0002 115.501L47.5044 115C44.5048 137 56.0043 140.501 67.0043 139.001C78.0043 137.501 82.0043 123.001 73.5043 115.501C65.0043 108.001 49.5046 105.501 41.5046 93.5009C33.5046 81.5009 39.0054 66.5011 47.5046 59.0002C57.0044 50.6162 79.5042 50.5028 87.5044 63.0017C93.6831 72.6549 92.0046 85.0002 90.5046 90.0002Z" fill="#A48FB1"/>
<path d="M520.915 90.0002H505.415C511.915 66.9995 489.915 63.5008 485.415 74.0008C480.915 84.5008 488.415 90.0002 496.915 94.5009C505.415 99.0015 523.415 103.501 524.915 122.501C526.415 141.501 515.072 151.174 501.415 154C486.915 157 471.915 153 465.415 142C460.235 133.233 460.744 121.334 461.41 115.501L477.915 115C474.915 137 486.414 140.501 497.414 139.001C508.414 137.501 512.414 123.001 503.914 115.501C495.414 108.001 479.915 105.501 471.915 93.5009C463.915 81.5009 469.416 66.5011 477.915 59.0002C487.415 50.6162 509.914 50.5028 517.915 63.0017C524.093 72.6549 522.415 85.0002 520.915 90.0002Z" fill="#A48FB1"/>
<path d="M133.193 42.7109C135.768 43.5363 137.564 45.6598 138.094 48.1266C138.695 48.1614 139.302 48.2728 139.902 48.4652C143.735 49.6939 145.846 53.7962 144.617 57.6289C143.389 61.4617 139.286 63.5732 135.453 62.3447C135.353 62.3126 135.254 62.2764 135.156 62.2404C135.051 62.213 134.946 62.1833 134.842 62.1498L120.961 57.7003C120.793 57.6465 120.63 57.5847 120.47 57.5173C120.294 57.4749 120.117 57.4285 119.941 57.3721C116.108 56.1435 113.996 52.04 115.225 48.2072C116.454 44.3745 120.557 42.264 124.39 43.4926C124.989 43.6848 125.547 43.9468 126.056 44.2677C127.921 42.5685 130.618 41.8854 133.193 42.7109Z" fill="#A48FB1"/>
<path d="M127.319 29.6126C130.027 30.3377 131.635 33.1211 130.91 35.8293C130.411 37.6913 128.94 39.0336 127.189 39.4548C126.505 39.6608 125.759 39.6862 125.019 39.4941C124.91 39.4725 124.801 39.4495 124.693 39.4205C124.59 39.3928 124.489 39.3603 124.389 39.3268L120.208 38.2077C120.104 38.1866 119.999 38.1637 119.894 38.1358C119.776 38.1042 119.661 38.0666 119.547 38.0273C119.041 37.8744 118.586 37.6302 118.195 37.317C116.564 36.1137 115.748 33.9945 116.304 31.9182C117.029 29.2102 119.812 27.603 122.52 28.3279C123.392 28.5613 124.149 29.0086 124.751 29.5973C125.568 29.3883 126.447 29.3792 127.319 29.6126Z" fill="#A48FB1"/>
</svg>
