<svg width="768" height="260" viewBox="0 0 768 260" fill="none" xmlns="http://www.w3.org/2000/svg">
<path d="M573 39C593.5 39 596.139 64.169 587 74.5C575.5 87.5 551 91.5 551 91.5V105.5C552.833 102.167 559.3 95.5 570.5 95.5C584.5 95.5 590 105 590 115C590 125 585.5 139.5 593.5 139.5C601.5 139.5 608.5 128.5 608.5 120C608.5 113.2 611.167 95.1667 612.5 87L628 89.5C626.5 97.8333 623.5 116 623.5 122C623.5 129.5 623.5 139.5 632 139.5C640.5 139.5 645.902 133.5 648.5 129C651.098 124.5 654 116 654 111V88H668.5V96C670.833 93 678.2 87 689 87C702.5 87 710.722 95.5 713 104C715.278 112.5 714.34 124.5 713 129.5C717.667 130.833 728.2 130.1 733 116.5L747.5 121C745.333 130.333 733.7 148.2 704.5 145C699.333 150.167 684.8 158.7 668 151.5L668.5 188.5H651.5L653 145C649.5 148.333 640.4 155 632 155C623.6 155 615.167 149.333 612 146.5C609.5 149.333 602.3 155 593.5 155C582.5 155 573.5 147 573.5 137.5C573.5 128 574 121.5 574 118C574 114.5 571.5 110.5 566 110.5C560.5 110.5 551 117.5 551 131V153.5H535.5C536 141 537 110.8 537 90C537 64 552.5 39 573 39ZM687 102.5C674.5 102.5 668 118 668 124.5V147.5L674.5 138C696 143.761 699 124.5 699 120C699 115.5 699.5 102.5 687 102.5ZM575.791 59.7822C576.544 54.1314 567.654 51.7961 561.021 58.7422C555.715 64.2994 553.65 73.9726 554.225 75.7451C569.091 73.7448 575.038 65.4331 575.791 59.7822Z" fill="#A48FB1"/>
<path d="M621 53.5L614 70L630 76L636.5 59.5L621 53.5Z" fill="#A48FB1"/>
<path d="M132.998 66.5L129.498 86.5H147.498L146.498 100.5H126.998C126.165 104.667 124.498 115 124.498 123C124.498 133 128.998 138.5 136.498 139C143.998 139.5 153.498 133.5 156.498 125.5C159.498 117.5 158.998 112.5 163.998 103C168.998 93.5001 176.998 87 189.998 87C202.998 87.0001 210.998 96.5001 210.998 105.5C210.998 114.5 206.502 119.5 202.5 122.5C198.247 125.688 190.498 127.5 173.998 127.5C174.498 131.333 179.098 139 193.498 139C211.498 139 217.498 129.5 221.998 123C226.498 116.5 223.498 114 230.998 101.5C238.498 89.0001 249.998 87 257.998 87C265.998 87.0001 276.498 90.5001 283.498 100.5L270.998 109.5C269.831 107.167 265.598 102.5 257.998 102.5C248.498 102.5 239.998 112 239.998 123C239.998 134 245.998 139.5 252.498 139.5C258.998 139.5 263.498 134.5 265.998 128.5C267.998 123.7 268.165 117.167 267.998 114.5H283.998V131.5C283.998 136.5 286.498 139 291.998 139C297.498 139 306.498 127.5 306.498 120V88H320.998V98C323.665 94.3333 331.298 87 340.498 87C349.698 87.0001 355.998 94.3334 357.998 98C359.998 94.3333 366.898 87 378.498 87C392.998 87.0001 398.498 99 398.498 105.5V133C398.498 138 402.998 139.5 406.498 139.5C409.998 139.5 416.998 136.5 420.498 116L434.998 120.5C434.165 124.5 431.598 134.1 427.998 140.5C423.498 148.5 414.498 154.5 406.498 154.5C398.498 154.5 381.998 153.5 381.998 133C381.998 112.5 384.998 102 374.998 102C364.998 102 361.498 113.5 361.498 121.5V153.5H344.498C344.998 142.667 345.998 119.7 345.998 114.5C345.998 108 342.498 102 336.498 102C330.498 102 322.998 112 322.998 120V153.5H306.498V147.5C303.331 149.833 295.398 154.5 288.998 154.5C280.998 154.5 273.998 148.964 271.998 145.5C268.498 148.5 259.698 154.5 252.498 154.5C243.498 154.5 234.998 152 227.498 141C221.831 145.667 207.098 155 193.498 155C179.898 155 167.832 146.667 163.498 142.5C159.998 146.333 149.698 154 136.498 154C119.998 154 108.498 144.5 108.498 133C108.498 123.8 109.831 107.5 110.498 100H103L105.498 85.5H113.498C113.998 81.8333 116 72 119 63L132.998 66.5ZM195.5 107.002C197 101.502 188.501 98.002 181.001 104.002C175.001 108.802 174.167 114.667 174.5 116.5C189.5 116.5 194 112.502 195.5 107.002Z" fill="#A48FB1"/>
<path d="M67.9402 189.5L66.5002 196.52L62.7802 195.5C60.1402 194.9 57.8402 194.6 55.8802 194.6C53.1602 194.6 51.8002 195.9 51.8002 198.5C51.8002 199.5 52.2602 200.42 53.1802 201.26C54.1402 202.06 55.3402 202.74 56.7802 203.3C58.2202 203.82 59.7602 204.48 61.4002 205.28C63.0402 206.08 64.5802 206.94 66.0202 207.86C67.4602 208.78 68.6402 210.04 69.5602 211.64C70.5202 213.24 71.0002 215.08 71.0002 217.16C71.0002 221.28 69.6602 224.52 66.9802 226.88C64.3402 229.2 60.6002 230.36 55.7602 230.36C53.2802 230.36 50.8002 230.04 48.3202 229.4C45.8802 228.72 43.8602 227.94 42.2602 227.06L44.8402 220.64C48.5202 222.32 52.1602 223.16 55.7602 223.16C57.8002 223.16 59.4002 222.7 60.5602 221.78C61.7202 220.82 62.3002 219.6 62.3002 218.12C62.3002 216.64 61.6402 215.42 60.3202 214.46C59.0002 213.46 57.4002 212.58 55.5202 211.82C53.6402 211.02 51.7602 210.14 49.8802 209.18C48.0002 208.18 46.4002 206.8 45.0802 205.04C43.7602 203.24 43.1002 201.12 43.1002 198.68C43.1002 195.04 44.2402 192.26 46.5202 190.34C48.8002 188.38 51.8602 187.4 55.7002 187.4C59.5802 187.4 63.6602 188.1 67.9402 189.5ZM99.907 228.14C96.107 229.62 92.587 230.36 89.347 230.36C79.947 230.36 75.247 225.28 75.247 215.12C75.247 209.96 76.387 206.06 78.667 203.42C80.947 200.74 84.267 199.4 88.627 199.4C92.227 199.4 95.107 200.52 97.267 202.76C99.427 205 100.507 208.32 100.507 212.72C100.507 214.48 100.427 216.02 100.267 217.34H82.927C82.927 219.7 83.567 221.44 84.847 222.56C86.127 223.68 87.847 224.24 90.007 224.24C92.167 224.24 95.027 223.76 98.587 222.8L99.907 228.14ZM93.007 211.82V211.4C93.007 209.56 92.607 208.08 91.807 206.96C91.007 205.84 89.747 205.28 88.027 205.28C86.307 205.28 85.027 205.9 84.187 207.14C83.347 208.38 82.907 209.94 82.867 211.82H93.007ZM123.674 230L122.474 227C121.074 228.28 119.834 229.18 118.754 229.7C117.674 230.18 116.374 230.42 114.854 230.42C112.294 230.42 110.054 229.54 108.134 227.78C106.254 225.98 105.314 223.6 105.314 220.64C105.314 217.68 106.474 215.36 108.794 213.68C111.114 211.96 114.614 211.1 119.294 211.1H121.754C121.754 209.38 121.334 208 120.494 206.96C119.694 205.92 118.454 205.4 116.774 205.4C113.854 205.4 110.894 205.8 107.894 206.6L106.574 201.32C110.534 200.04 114.514 199.4 118.514 199.4C125.794 199.4 129.434 202.8 129.434 209.6V230H123.674ZM121.634 216.86H119.054C116.814 216.86 115.294 217.16 114.494 217.76C113.694 218.36 113.294 219.24 113.294 220.4C113.294 221.52 113.594 222.44 114.194 223.16C114.794 223.88 115.574 224.24 116.534 224.24C117.894 224.24 119.594 223.16 121.634 221V216.86ZM137.65 223.52V206.6H134.59V200H137.71V191.42H145.45V200H151.75V206.6H145.39V219.68C145.39 222.36 146.21 223.7 147.85 223.7C148.77 223.7 149.75 223.58 150.79 223.34L152.05 229.58C150.21 230.1 148.25 230.36 146.17 230.36C144.13 230.36 142.19 229.84 140.35 228.8C138.55 227.72 137.65 225.96 137.65 223.52ZM158.392 223.52V206.6H155.332V200H158.452V191.42H166.192V200H172.492V206.6H166.132V219.68C166.132 222.36 166.952 223.7 168.592 223.7C169.512 223.7 170.492 223.58 171.532 223.34L172.792 229.58C170.952 230.1 168.992 230.36 166.912 230.36C164.872 230.36 162.932 229.84 161.092 228.8C159.292 227.72 158.392 225.96 158.392 223.52ZM187.234 230H179.434V188H187.234V230ZM219.38 228.14C215.58 229.62 212.06 230.36 208.82 230.36C199.42 230.36 194.72 225.28 194.72 215.12C194.72 209.96 195.86 206.06 198.14 203.42C200.42 200.74 203.74 199.4 208.1 199.4C211.7 199.4 214.58 200.52 216.74 202.76C218.9 205 219.98 208.32 219.98 212.72C219.98 214.48 219.9 216.02 219.74 217.34H202.4C202.4 219.7 203.04 221.44 204.32 222.56C205.6 223.68 207.32 224.24 209.48 224.24C211.64 224.24 214.5 223.76 218.06 222.8L219.38 228.14ZM212.48 211.82V211.4C212.48 209.56 212.08 208.08 211.28 206.96C210.48 205.84 209.22 205.28 207.5 205.28C205.78 205.28 204.5 205.9 203.66 207.14C202.82 208.38 202.38 209.94 202.34 211.82H212.48ZM235.107 225.8L228.327 240.68L222.387 238.76L227.607 223.34L235.107 225.8ZM297.515 188L287.555 230H278.735L275.015 211.64L269.915 230H261.395L251.615 188H260.975L265.895 218.9L270.875 199.4H279.035L283.415 218.9L288.575 188H297.515ZM332.254 230H323.614L320.614 219.74H307.954L305.014 230H296.674L309.274 188H319.534L332.254 230ZM318.994 212.84L314.374 195.56L309.694 212.84H318.994Z" fill="#A48FB1"/>
<path d="M90.5046 90.0002H75.0046C81.5048 66.9995 59.5044 63.5008 55.0044 74.0008C50.5044 84.5008 58.0044 90.0002 66.5044 94.5009C75.0044 99.0015 93.0044 103.501 94.5044 122.501C96.0044 141.501 84.6615 151.174 71.0044 154C56.5044 157 41.5045 153 35.0048 142C29.8244 133.233 30.3335 121.334 31.0002 115.501L47.5044 115C44.5048 137 56.0043 140.501 67.0043 139.001C78.0043 137.501 82.0043 123.001 73.5043 115.501C65.0043 108.001 49.5046 105.501 41.5046 93.5009C33.5046 81.5009 39.0054 66.5011 47.5046 59.0002C57.0044 50.6162 79.5042 50.5028 87.5044 63.0017C93.6831 72.6549 92.0046 85.0002 90.5046 90.0002Z" fill="#A48FB1"/>
<path d="M520.915 90.0002H505.415C511.915 66.9995 489.915 63.5008 485.415 74.0008C480.915 84.5008 488.415 90.0002 496.915 94.5009C505.415 99.0015 523.415 103.501 524.915 122.501C526.415 141.501 515.072 151.174 501.415 154C486.915 157 471.915 153 465.415 142C460.235 133.233 460.744 121.334 461.41 115.501L477.915 115C474.915 137 486.414 140.501 497.414 139.001C508.414 137.501 512.414 123.001 503.914 115.501C495.414 108.001 479.915 105.501 471.915 93.5009C463.915 81.5009 469.416 66.5011 477.915 59.0002C487.415 50.6162 509.914 50.5028 517.915 63.0017C524.093 72.6549 522.415 85.0002 520.915 90.0002Z" fill="#A48FB1"/>
<path d="M133.193 42.7109C135.768 43.5363 137.564 45.6598 138.094 48.1266C138.695 48.1614 139.302 48.2728 139.902 48.4652C143.735 49.6939 145.846 53.7962 144.617 57.6289C143.389 61.4617 139.286 63.5732 135.453 62.3447C135.353 62.3126 135.254 62.2764 135.156 62.2404C135.051 62.213 134.946 62.1833 134.842 62.1498L120.961 57.7003C120.793 57.6465 120.63 57.5847 120.47 57.5173C120.294 57.4749 120.117 57.4285 119.941 57.3721C116.108 56.1435 113.996 52.04 115.225 48.2072C116.454 44.3745 120.557 42.264 124.39 43.4926C124.989 43.6848 125.547 43.9468 126.056 44.2677C127.921 42.5685 130.618 41.8854 133.193 42.7109Z" fill="#A48FB1"/>
<path d="M127.319 23.6126C130.027 24.3377 131.635 27.1211 130.91 29.8293C130.411 31.6913 128.94 33.0336 127.189 33.4548C126.505 33.6608 125.759 33.6862 125.019 33.4941C124.91 33.4725 124.801 33.4495 124.693 33.4205C124.59 33.3928 124.489 33.3603 124.389 33.3268L120.208 32.2077C120.104 32.1866 119.999 32.1637 119.894 32.1358C119.776 32.1042 119.661 32.0666 119.547 32.0273C119.041 31.8744 118.586 31.6302 118.195 31.317C116.564 30.1137 115.748 27.9945 116.304 25.9182C117.029 23.2102 119.812 21.603 122.52 22.3279C123.392 22.5613 124.149 23.0086 124.751 23.5973C125.568 23.3883 126.447 23.3792 127.319 23.6126Z" fill="#A48FB1"/>
</svg>
