<svg width="768" height="260" viewBox="0 0 768 260" fill="none" xmlns="http://www.w3.org/2000/svg">
<path d="M573 39C593.5 39 596.139 64.169 587 74.5C575.5 87.5 551 91.5 551 91.5V105.5C552.833 102.167 559.3 95.5 570.5 95.5C584.5 95.5 590 105 590 115C590 125 585.5 139.5 593.5 139.5C601.5 139.5 608.5 128.5 608.5 120C608.5 113.2 611.167 95.1667 612.5 87L628 89.5C626.5 97.8333 623.5 116 623.5 122C623.5 129.5 623.5 139.5 632 139.5C640.5 139.5 645.902 133.5 648.5 129C651.098 124.5 654 116 654 111V88H668.5V96C670.833 93 678.2 87 689 87C702.5 87 710.722 95.5 713 104C715.278 112.5 714.34 124.5 713 129.5C717.667 130.833 728.2 130.1 733 116.5L747.5 121C745.333 130.333 733.7 148.2 704.5 145C699.333 150.167 684.8 158.7 668 151.5L668.5 188.5H651.5L653 145C649.5 148.333 640.4 155 632 155C623.6 155 615.167 149.333 612 146.5C609.5 149.333 602.3 155 593.5 155C582.5 155 573.5 147 573.5 137.5C573.5 128 574 121.5 574 118C574 114.5 571.5 110.5 566 110.5C560.5 110.5 551 117.5 551 131V153.5H535.5C536 141 537 110.8 537 90C537 64 552.5 39 573 39ZM687 102.5C674.5 102.5 668 118 668 124.5V147.5L674.5 138C696 143.761 699 124.5 699 120C699 115.5 699.5 102.5 687 102.5ZM575.791 59.7822C576.544 54.1314 567.654 51.7961 561.021 58.7422C555.715 64.2994 553.65 73.9726 554.225 75.7451C569.091 73.7448 575.038 65.4331 575.791 59.7822Z" fill="#A48FB1"/>
<path d="M621 53.5L614 70L630 76L636.5 59.5L621 53.5Z" fill="#A48FB1"/>
<path d="M132.998 66.5L129.498 86.5H147.498L146.498 100.5H126.998C126.165 104.667 124.498 115 124.498 123C124.498 133 128.998 138.5 136.498 139C143.998 139.5 153.498 133.5 156.498 125.5C159.498 117.5 158.998 112.5 163.998 103C168.998 93.5001 176.998 87 189.998 87C202.998 87.0001 210.998 96.5001 210.998 105.5C210.998 114.5 206.502 119.5 202.5 122.5C198.247 125.688 190.498 127.5 173.998 127.5C174.498 131.333 179.098 139 193.498 139C211.498 139 217.498 129.5 221.998 123C226.498 116.5 223.498 114 230.998 101.5C238.498 89.0001 249.998 87 257.998 87C265.998 87.0001 276.498 90.5001 283.498 100.5L270.998 109.5C269.831 107.167 265.598 102.5 257.998 102.5C248.498 102.5 239.998 112 239.998 123C239.998 134 245.998 139.5 252.498 139.5C258.998 139.5 263.498 134.5 265.998 128.5C267.998 123.7 268.165 117.167 267.998 114.5H283.998V131.5C283.998 136.5 286.498 139 291.998 139C297.498 139 306.498 127.5 306.498 120V88H320.998V98C323.665 94.3333 331.298 87 340.498 87C349.698 87.0001 355.998 94.3334 357.998 98C359.998 94.3333 366.898 87 378.498 87C392.998 87.0001 398.498 99 398.498 105.5V133C398.498 138 402.998 139.5 406.498 139.5C409.998 139.5 416.998 136.5 420.498 116L434.998 120.5C434.165 124.5 431.598 134.1 427.998 140.5C423.498 148.5 414.498 154.5 406.498 154.5C398.498 154.5 381.998 153.5 381.998 133C381.998 112.5 384.998 102 374.998 102C364.998 102 361.498 113.5 361.498 121.5V153.5H344.498C344.998 142.667 345.998 119.7 345.998 114.5C345.998 108 342.498 102 336.498 102C330.498 102 322.998 112 322.998 120V153.5H306.498V147.5C303.331 149.833 295.398 154.5 288.998 154.5C280.998 154.5 273.998 148.964 271.998 145.5C268.498 148.5 259.698 154.5 252.498 154.5C243.498 154.5 234.998 152 227.498 141C221.831 145.667 207.098 155 193.498 155C179.898 155 167.832 146.667 163.498 142.5C159.998 146.333 149.698 154 136.498 154C119.998 154 108.498 144.5 108.498 133C108.498 123.8 109.831 107.5 110.498 100H103L105.498 85.5H113.498C113.998 81.8333 116 72 119 63L132.998 66.5ZM195.5 107.002C197 101.502 188.501 98.002 181.001 104.002C175.001 108.802 174.167 114.667 174.5 116.5C189.5 116.5 194 112.502 195.5 107.002Z" fill="#A48FB1"/>
<path d="M57.2644 189.5L55.8244 196.52L52.1044 195.5C49.4644 194.9 47.1644 194.6 45.2044 194.6C42.4844 194.6 41.1244 195.9 41.1244 198.5C41.1244 199.5 41.5844 200.42 42.5044 201.26C43.4644 202.06 44.6644 202.74 46.1044 203.3C47.5444 203.82 49.0844 204.48 50.7244 205.28C52.3644 206.08 53.9044 206.94 55.3444 207.86C56.7844 208.78 57.9644 210.04 58.8844 211.64C59.8444 213.24 60.3244 215.08 60.3244 217.16C60.3244 221.28 58.9844 224.52 56.3044 226.88C53.6644 229.2 49.9244 230.36 45.0844 230.36C42.6044 230.36 40.1244 230.04 37.6444 229.4C35.2044 228.72 33.1844 227.94 31.5844 227.06L34.1644 220.64C37.8444 222.32 41.4844 223.16 45.0844 223.16C47.1244 223.16 48.7244 222.7 49.8844 221.78C51.0444 220.82 51.6244 219.6 51.6244 218.12C51.6244 216.64 50.9644 215.42 49.6444 214.46C48.3244 213.46 46.7244 212.58 44.8444 211.82C42.9644 211.02 41.0844 210.14 39.2044 209.18C37.3244 208.18 35.7244 206.8 34.4044 205.04C33.0844 203.24 32.4244 201.12 32.4244 198.68C32.4244 195.04 33.5644 192.26 35.8444 190.34C38.1244 188.38 41.1844 187.4 45.0244 187.4C48.9044 187.4 52.9844 188.1 57.2644 189.5ZM89.2313 228.14C85.4313 229.62 81.9113 230.36 78.6713 230.36C69.2713 230.36 64.5713 225.28 64.5713 215.12C64.5713 209.96 65.7113 206.06 67.9913 203.42C70.2713 200.74 73.5913 199.4 77.9512 199.4C81.5513 199.4 84.4313 200.52 86.5913 202.76C88.7513 205 89.8313 208.32 89.8313 212.72C89.8313 214.48 89.7513 216.02 89.5913 217.34H72.2513C72.2513 219.7 72.8913 221.44 74.1713 222.56C75.4513 223.68 77.1713 224.24 79.3313 224.24C81.4913 224.24 84.3513 223.76 87.9113 222.8L89.2313 228.14ZM82.3313 211.82V211.4C82.3313 209.56 81.9313 208.08 81.1313 206.96C80.3313 205.84 79.0713 205.28 77.3513 205.28C75.6313 205.28 74.3513 205.9 73.5113 207.14C72.6713 208.38 72.2313 209.94 72.1913 211.82H82.3313ZM112.998 230L111.798 227C110.398 228.28 109.158 229.18 108.078 229.7C106.998 230.18 105.698 230.42 104.178 230.42C101.618 230.42 99.3783 229.54 97.4583 227.78C95.5783 225.98 94.6383 223.6 94.6383 220.64C94.6383 217.68 95.7983 215.36 98.1183 213.68C100.438 211.96 103.938 211.1 108.618 211.1H111.078C111.078 209.38 110.658 208 109.818 206.96C109.018 205.92 107.778 205.4 106.098 205.4C103.178 205.4 100.218 205.8 97.2183 206.6L95.8983 201.32C99.8583 200.04 103.838 199.4 107.838 199.4C115.118 199.4 118.758 202.8 118.758 209.6V230H112.998ZM110.958 216.86H108.378C106.138 216.86 104.618 217.16 103.818 217.76C103.018 218.36 102.618 219.24 102.618 220.4C102.618 221.52 102.918 222.44 103.518 223.16C104.118 223.88 104.898 224.24 105.858 224.24C107.218 224.24 108.918 223.16 110.958 221V216.86ZM126.974 223.52V206.6H123.914V200H127.034V191.42H134.774V200H141.074V206.6H134.714V219.68C134.714 222.36 135.534 223.7 137.174 223.7C138.094 223.7 139.074 223.58 140.114 223.34L141.374 229.58C139.534 230.1 137.574 230.36 135.494 230.36C133.454 230.36 131.514 229.84 129.674 228.8C127.874 227.72 126.974 225.96 126.974 223.52ZM147.716 223.52V206.6H144.656V200H147.776V191.42H155.516V200H161.816V206.6H155.456V219.68C155.456 222.36 156.276 223.7 157.916 223.7C158.836 223.7 159.816 223.58 160.856 223.34L162.116 229.58C160.276 230.1 158.316 230.36 156.236 230.36C154.196 230.36 152.256 229.84 150.416 228.8C148.616 227.72 147.716 225.96 147.716 223.52ZM176.558 230H168.758V188H176.558V230ZM208.704 228.14C204.904 229.62 201.384 230.36 198.144 230.36C188.744 230.36 184.044 225.28 184.044 215.12C184.044 209.96 185.184 206.06 187.464 203.42C189.744 200.74 193.064 199.4 197.424 199.4C201.024 199.4 203.904 200.52 206.064 202.76C208.224 205 209.304 208.32 209.304 212.72C209.304 214.48 209.224 216.02 209.064 217.34H191.724C191.724 219.7 192.364 221.44 193.644 222.56C194.924 223.68 196.644 224.24 198.804 224.24C200.964 224.24 203.824 223.76 207.384 222.8L208.704 228.14ZM201.804 211.82V211.4C201.804 209.56 201.404 208.08 200.604 206.96C199.804 205.84 198.544 205.28 196.824 205.28C195.104 205.28 193.824 205.9 192.984 207.14C192.144 208.38 191.704 209.94 191.664 211.82H201.804ZM272.191 188L262.231 230H253.411L249.691 211.64L244.591 230H236.071L226.291 188H235.651L240.571 218.9L245.551 199.4H253.711L258.091 218.9L263.251 188H272.191ZM306.93 230H298.29L295.29 219.74H282.63L279.69 230H271.35L283.95 188H294.21L306.93 230ZM293.67 212.84L289.05 195.56L284.37 212.84H293.67Z" fill="#A48FB1"/>
<path d="M90.5046 90.0002H75.0046C81.5048 66.9995 59.5044 63.5008 55.0044 74.0008C50.5044 84.5008 58.0044 90.0002 66.5044 94.5009C75.0044 99.0015 93.0044 103.501 94.5044 122.501C96.0044 141.501 84.6615 151.174 71.0044 154C56.5044 157 41.5045 153 35.0048 142C29.8244 133.233 30.3335 121.334 31.0002 115.501L47.5044 115C44.5048 137 56.0043 140.501 67.0043 139.001C78.0043 137.501 82.0043 123.001 73.5043 115.501C65.0043 108.001 49.5046 105.501 41.5046 93.5009C33.5046 81.5009 39.0054 66.5011 47.5046 59.0002C57.0044 50.6162 79.5042 50.5028 87.5044 63.0017C93.6831 72.6549 92.0046 85.0002 90.5046 90.0002Z" fill="#A48FB1"/>
<path d="M520.915 90.0002H505.415C511.915 66.9995 489.915 63.5008 485.415 74.0008C480.915 84.5008 488.415 90.0002 496.915 94.5009C505.415 99.0015 523.415 103.501 524.915 122.501C526.415 141.501 515.072 151.174 501.415 154C486.915 157 471.915 153 465.415 142C460.235 133.233 460.744 121.334 461.41 115.501L477.915 115C474.915 137 486.414 140.501 497.414 139.001C508.414 137.501 512.414 123.001 503.914 115.501C495.414 108.001 479.915 105.501 471.915 93.5009C463.915 81.5009 469.416 66.5011 477.915 59.0002C487.415 50.6162 509.914 50.5028 517.915 63.0017C524.093 72.6549 522.415 85.0002 520.915 90.0002Z" fill="#A48FB1"/>
<path d="M133.193 42.7109C135.768 43.5363 137.564 45.6598 138.094 48.1266C138.695 48.1614 139.302 48.2728 139.902 48.4652C143.735 49.6939 145.846 53.7962 144.617 57.6289C143.389 61.4617 139.286 63.5732 135.453 62.3447C135.353 62.3126 135.254 62.2764 135.156 62.2404C135.051 62.213 134.946 62.1833 134.842 62.1498L120.961 57.7003C120.793 57.6465 120.63 57.5847 120.47 57.5173C120.294 57.4749 120.117 57.4285 119.941 57.3721C116.108 56.1435 113.996 52.04 115.225 48.2072C116.454 44.3745 120.557 42.264 124.39 43.4926C124.989 43.6848 125.547 43.9468 126.056 44.2677C127.921 42.5685 130.618 41.8854 133.193 42.7109Z" fill="#A48FB1"/>
<path d="M127.319 23.6126C130.027 24.3377 131.635 27.1211 130.91 29.8293C130.411 31.6913 128.94 33.0336 127.189 33.4548C126.505 33.6608 125.759 33.6862 125.019 33.4941C124.91 33.4725 124.801 33.4495 124.693 33.4205C124.59 33.3928 124.489 33.3603 124.389 33.3268L120.208 32.2077C120.104 32.1866 119.999 32.1637 119.894 32.1358C119.776 32.1042 119.661 32.0666 119.547 32.0273C119.041 31.8744 118.586 31.6302 118.195 31.317C116.564 30.1137 115.748 27.9945 116.304 25.9182C117.029 23.2102 119.812 21.603 122.52 22.3279C123.392 22.5613 124.149 23.0086 124.751 23.5973C125.568 23.3883 126.447 23.3792 127.319 23.6126Z" fill="#A48FB1"/>
</svg>
